#Comment line ignore any data following # character 
#Hierarchical Translation and Rotation (.htr) file 
[Header]	
#Header keywords are followed by a single value 
FileType HTR		#Single word string
DataType HTRS		#Translation followed by rotation and scale data
FileVersion 1		#integer
NumSegments 29		#integer
NumFrames 4		#integer
DataFrameRate 30		#integer, data frame rate in this file
EulerRotationOrder ZYX
CalibrationUnits mm
RotationUnits Degrees
GlobalAxisofGravity Y
BoneLengthAxis Y
ScaleFactor 1.00
[SegmentNames&Hierarchy]
#CHILD	PARENT
MASTER GLOBAL
weapon MASTER
back_slider weapon
front_bottom weapon
front_middle_part1 weapon
front_middle_part2 weapon
front_middle_part3 weapon
front_middle_part4 weapon
front_top weapon
wing_bottom_left weapon
wing_bottom_right weapon
wing_top_left weapon
wing_top_right weapon
front_bottom_rumble_left front_bottom
front_bottom_rumble_right front_bottom
back_rotate_bottom_left front_middle_part3
back_rotate_bottom_right front_middle_part3
back_rotate_top_left front_middle_part3
back_rotate_top_right front_middle_part3
front_middle_part3_left front_middle_part3
front_middle_part3_right front_middle_part3
wing_bottom_left_buckets_1 wing_bottom_left
wing_bottom_left_buckets_2 wing_bottom_left
wing_bottom_left_buckets_3 wing_bottom_left
wing_bottom_right_buckets wing_bottom_right
wing_top_left_buckets wing_top_left
wing_top_left_buckets_1 wing_top_left
wing_top_left_buckets_3 wing_top_left
wing_top_right_buckets wing_top_right
[BasePosition]
#SegmentName Tx, Ty, Tz, Rx, Ry, Rz, BoneLength
MASTER 0.000000 0.000000 0.000000 -90.000000 0.000000 0.000000 10.000000 
weapon 0.000000 0.000000 0.000000 0.000000 0.000000 0.000000 10.000000 
back_slider 0.000000 0.000000 0.000000 0.000000 0.000000 0.000000 10.000000 
front_bottom 0.000000 0.000000 0.000000 0.000000 0.000000 0.000000 10.000000 
front_middle_part1 0.000000 0.000000 0.000000 0.000000 0.000000 0.000000 10.000000 
front_middle_part2 0.000000 0.000000 0.000000 0.000000 0.000000 0.000000 10.000000 
front_middle_part3 0.000000 0.000000 0.000000 0.000000 0.000000 0.000000 10.000000 
front_middle_part4 0.000000 0.000000 0.000000 0.000000 0.000000 0.000000 10.000000 
front_top 0.000000 0.000000 0.000000 0.000000 0.000000 0.000000 10.000000 
wing_bottom_left 0.000000 0.000000 0.000000 0.000000 0.000000 0.000000 10.000000 
wing_bottom_right 0.000000 0.000000 0.000000 0.000000 0.000000 0.000000 10.000000 
wing_top_left 0.000000 0.000000 0.000000 0.000000 0.000000 0.000000 10.000000 
wing_top_right 0.000000 0.000000 0.000000 0.000000 0.000000 0.000000 10.000000 
front_bottom_rumble_left 0.000000 0.000000 0.000000 0.000000 0.000000 0.000000 10.000000 
front_bottom_rumble_right 0.000000 0.000000 0.000000 0.000000 0.000000 0.000000 10.000000 
back_rotate_bottom_left 0.000000 0.000000 0.000000 0.000000 0.000000 0.000000 10.000000 
back_rotate_bottom_right 0.000000 0.000000 0.000000 0.000000 0.000000 0.000000 10.000000 
back_rotate_top_left 0.000000 0.000000 0.000000 0.000000 0.000000 0.000000 10.000000 
back_rotate_top_right 0.000000 0.000000 0.000000 0.000000 0.000000 0.000000 10.000000 
front_middle_part3_left 0.000000 0.000000 0.000000 0.000000 0.000000 0.000000 10.000000 
front_middle_part3_right 0.000000 0.000000 0.000000 0.000000 0.000000 0.000000 10.000000 
wing_bottom_left_buckets_1 0.000000 0.000000 0.000000 0.000000 0.000000 0.000000 10.000000 
wing_bottom_left_buckets_2 0.000000 0.000000 0.000000 0.000000 0.000000 0.000000 10.000000 
wing_bottom_left_buckets_3 0.000000 0.000000 0.000000 0.000000 0.000000 0.000000 10.000000 
wing_bottom_right_buckets 0.000000 0.000000 0.000000 0.000000 0.000000 0.000000 10.000000 
wing_top_left_buckets 0.000000 0.000000 0.000000 0.000000 0.000000 0.000000 10.000000 
wing_top_left_buckets_1 0.000000 0.000000 0.000000 0.000000 0.000000 0.000000 10.000000 
wing_top_left_buckets_3 0.000000 0.000000 0.000000 0.000000 0.000000 0.000000 10.000000 
wing_top_right_buckets 0.000000 0.000000 0.000000 0.000000 0.000000 0.000000 10.000000 
#Beginning of Data. Separated by tabs
#Fr	Tx	Ty	Tz	Rx	Ry	Rz	SF
[MASTER]
6 -0.000019 0.000000 0.000000 0.000000 -0.000000 0.000000 0.000019
7 -0.000019 0.000000 0.000000 0.000000 -0.000000 0.000000 0.000019
8 -0.000019 0.000000 0.000000 0.000000 -0.000000 0.000000 0.000019
9 -0.000019 0.000000 0.000000 0.000000 -0.000000 0.000000 0.000019
[weapon]
6 -0.000076 -79.014702 86.001579 0.000000 0.000000 -0.000020 116.788681
7 -0.000076 -79.014702 86.001579 0.000000 0.000000 -0.000020 116.788681
8 -0.000076 -79.014702 86.001579 0.000000 0.000000 -0.000020 116.788681
9 -0.000076 -79.014702 86.001579 0.000000 0.000000 -0.000020 116.788681
[back_slider]
6 0.000000 50.641628 -85.991821 0.000000 -0.000000 0.000000 99.795639
7 0.000000 47.632935 -85.991974 0.000000 -0.000000 0.000000 98.303185
8 0.000038 44.191051 -85.991974 0.000000 -0.000000 0.000000 96.682312
9 0.000000 40.350914 -85.991974 0.000000 -0.000000 0.000000 94.988503
[front_bottom]
6 0.000019 668.200562 -215.796494 9.786223 -0.001512 179.998199 702.182373
7 0.000038 669.209412 -215.875854 9.696877 -0.001514 179.998199 703.166870
8 0.000038 670.546448 -215.980377 9.592657 -0.001515 179.998199 704.471497
9 0.000038 671.883545 -216.084900 9.478504 -0.001517 179.998215 705.776245
[front_middle_part1]
6 0.000000 519.313477 -85.992035 0.001581 -5.836776 0.001581 526.384949
7 0.000000 519.313477 -85.992035 0.001553 -8.210258 0.001553 526.384949
8 0.000000 519.313477 -85.992035 0.001522 -10.910166 0.001522 526.384949
9 0.000000 519.313477 -85.992035 0.001490 -13.920036 0.001490 526.384949
[front_middle_part2]
6 0.000000 477.040344 -85.992035 0.001729 4.528139 0.001729 484.728912
7 0.000000 477.040344 -85.992035 0.001762 6.469104 0.001762 484.728912
8 0.000000 477.040344 -85.992035 0.001802 8.724383 0.001802 484.728912
9 0.000000 477.040344 -85.992035 0.001851 11.281201 0.001851 484.728912
[front_middle_part3]
6 0.000038 -180.161575 -85.992126 0.000000 -0.000000 0.000000 199.631760
7 0.000057 -181.982666 -85.992043 0.000000 -0.000000 0.000000 201.276718
8 0.000076 -183.803757 -85.991974 0.000000 -0.000000 0.000000 202.924713
9 0.000076 -186.030411 -85.991974 0.000000 -0.000000 0.000000 204.943741
[front_middle_part4]
6 0.000000 -443.853668 -85.992035 0.000000 -0.000000 0.000000 452.106964
7 0.000000 -443.853668 -85.992035 0.000000 -0.000000 0.000000 452.106964
8 0.000000 -443.853668 -85.992035 0.000000 -0.000000 0.000000 452.106964
9 0.000000 -443.853668 -85.992035 0.000000 -0.000000 0.000000 452.106964
[front_top]
6 0.000038 533.036560 -158.170166 -0.863843 0.001672 0.001647 556.008789
7 0.000038 536.943970 -158.372955 -1.219950 0.001677 0.001642 559.813171
8 0.000038 541.394226 -158.603973 -1.630469 0.001683 0.001636 564.147949
9 0.000038 546.335632 -158.860016 -2.090482 0.001690 0.001629 568.963257
[wing_bottom_left]
6 -124.333710 235.191696 -217.766312 179.044266 54.993298 178.831589 343.796692
7 -124.333710 235.191696 -217.766312 178.646515 54.988708 178.345810 343.796692
8 -124.333710 235.191696 -217.766312 178.194412 54.981583 177.798370 343.796692
9 -124.333710 235.191696 -217.766312 177.699799 54.965828 177.190063 343.796692
[wing_bottom_right]
6 124.947586 235.191696 -217.766144 0.000000 54.999989 0.000000 344.019073
7 124.947586 235.191696 -217.766144 0.000000 54.999989 0.000000 344.019073
8 124.947586 235.191696 -217.766144 0.000000 54.999989 0.000000 344.019073
9 124.947586 235.191696 -217.766144 0.000000 54.999989 0.000000 344.019073
[wing_top_left]
6 -124.333710 235.191696 62.502743 -178.854416 -54.993137 178.598938 273.277527
7 -124.333710 235.191696 62.502743 -178.382660 -54.986626 178.024490 273.277527
8 -124.333710 235.191696 62.502743 -177.845093 -54.970886 177.365921 273.277527
9 -124.333710 235.191696 62.502743 -177.241608 -54.956085 176.634033 273.277527
[wing_top_right]
6 131.595657 235.191696 62.502682 -0.000000 -55.000015 0.000000 276.657074
7 131.595657 235.191696 62.502682 -0.000000 -55.000015 0.000000 276.657074
8 131.595657 235.191696 62.502682 -0.000000 -55.000015 0.000000 276.657074
9 131.595657 235.191696 62.502682 -0.000000 -55.000015 0.000000 276.657074
[front_bottom_rumble_left]
6 163.070297 263.743958 -16.969442 -129.881882 18.229330 75.387009 310.549133
7 163.070297 263.743958 -16.969442 -129.881882 18.229330 75.387009 310.549133
8 163.070297 263.743958 -16.969442 -129.881882 18.229330 75.387009 310.549133
9 163.070297 263.743958 -16.969442 -129.881882 18.229330 75.387009 310.549133
[front_bottom_rumble_right]
6 -163.070480 263.743835 -16.969442 -50.118145 18.229362 104.612976 310.549133
7 -163.070480 263.743835 -16.969442 -50.118145 18.229362 104.612976 310.549133
8 -163.070480 263.743835 -16.969442 -50.118145 18.229362 104.612976 310.549133
9 -163.070480 263.743835 -16.969442 -50.118145 18.229362 104.612976 310.549133
[back_rotate_bottom_left]
6 -38.067558 -195.870575 -38.097980 0.000000 -0.000000 0.000000 203.140045
7 -38.067558 -195.870575 -38.097980 0.000000 -0.000000 0.000000 203.140045
8 -38.067558 -195.870575 -38.097980 0.000000 -0.000000 0.000000 203.140045
9 -38.067558 -195.870575 -38.097980 0.000000 -0.000000 0.000000 203.140045
[back_rotate_bottom_right]
6 38.098610 -195.870575 -38.057903 0.000000 -0.000000 0.000000 203.138351
7 38.098610 -195.870575 -38.057903 0.000000 -0.000000 0.000000 203.138351
8 38.098610 -195.870575 -38.057903 0.000000 -0.000000 0.000000 203.138351
9 38.098610 -195.870575 -38.057903 0.000000 -0.000000 0.000000 203.138351
[back_rotate_top_left]
6 -38.074085 -195.870575 38.105885 0.000000 -0.000000 0.000000 203.142746
7 -38.074085 -195.870575 38.105885 0.000000 -0.000000 0.000000 203.142746
8 -38.074085 -195.870575 38.105885 0.000000 -0.000000 0.000000 203.142746
9 -38.074085 -195.870575 38.105885 0.000000 -0.000000 0.000000 203.142746
[back_rotate_top_right]
6 38.111603 -195.870575 38.079086 0.000000 -0.000000 0.000000 203.144760
7 38.111603 -195.870575 38.079086 0.000000 -0.000000 0.000000 203.144760
8 38.111603 -195.870575 38.079086 0.000000 -0.000000 0.000000 203.144760
9 38.111603 -195.870575 38.079086 0.000000 -0.000000 0.000000 203.144760
[front_middle_part3_left]
6 -90.176392 364.727173 0.462952 90.002296 -0.000000 0.002347 375.709869
7 -90.176392 364.727173 0.462952 90.002296 -0.000000 0.002347 375.709869
8 -90.176392 364.727173 0.462952 90.002296 -0.000000 0.002347 375.709869
9 -90.176392 364.727173 0.462952 90.002296 -0.000000 0.002347 375.709869
[front_middle_part3_right]
6 91.046051 364.727081 0.046265 -90.000000 0.000003 180.000000 375.919159
7 91.046051 364.727081 0.046265 -90.000000 0.000003 180.000000 375.919159
8 91.046051 364.727081 0.046265 -90.000000 0.000003 180.000000 375.919159
9 91.046051 364.727081 0.046265 -90.000000 0.000003 180.000000 375.919159
[wing_bottom_left_buckets_1]
6 -47.610477 -288.454193 -9.889640 -0.000027 0.000020 -0.000035 292.524170
7 -47.610477 -288.454193 -9.889640 -0.000027 0.000020 -0.000035 292.524170
8 -47.610477 -288.454193 -9.889640 -0.000027 0.000020 -0.000035 292.524170
9 -47.610477 -288.454193 -9.889640 -0.000027 0.000020 -0.000035 292.524170
[wing_bottom_left_buckets_2]
6 -47.610565 -358.672546 -9.889595 -0.000031 -0.000003 -0.000031 361.953827
7 -47.610565 -358.672546 -9.889595 -0.000031 -0.000003 -0.000031 361.953827
8 -47.610565 -358.672546 -9.889595 -0.000031 -0.000003 -0.000031 361.953827
9 -47.610565 -358.672546 -9.889595 -0.000031 -0.000003 -0.000031 361.953827
[wing_bottom_left_buckets_3]
6 -47.610672 -428.104828 -9.889513 -0.000027 0.000020 -0.000035 430.857635
7 -47.610672 -428.104828 -9.889513 -0.000027 0.000020 -0.000035 430.857635
8 -47.610672 -428.104828 -9.889513 -0.000027 0.000020 -0.000035 430.857635
9 -47.610672 -428.104828 -9.889513 -0.000027 0.000020 -0.000035 430.857635
[wing_bottom_right_buckets]
6 -47.962635 -358.672546 9.386807 0.000027 0.000061 -0.000035 361.986908
7 -47.962635 -358.672546 9.386807 0.000027 0.000061 -0.000035 361.986908
8 -47.962635 -358.672546 9.386807 0.000027 0.000061 -0.000035 361.986908
9 -47.962635 -358.672546 9.386807 0.000027 0.000061 -0.000035 361.986908
[wing_top_left_buckets]
6 -45.484066 -358.586609 10.598831 0.001680 1.376597 0.001680 361.615112
7 -45.484066 -358.586609 10.598831 0.001692 2.172942 0.001692 361.615112
8 -45.484066 -358.586609 10.598831 0.001685 1.703040 0.001685 361.615112
9 -45.484066 -358.586609 10.598831 0.001678 1.228215 0.001678 361.615112
[wing_top_left_buckets_1]
6 -45.484005 -287.973450 10.598879 0.000027 0.000000 -0.000035 291.735931
7 -45.484005 -287.973450 10.598879 0.000027 0.000000 -0.000035 291.735931
8 -45.484005 -287.973450 10.598879 0.000027 0.000000 -0.000035 291.735931
9 -45.484005 -287.973450 10.598879 0.000027 0.000000 -0.000035 291.735931
[wing_top_left_buckets_3]
6 -45.484154 -426.601654 10.598794 0.000027 0.000000 -0.000035 429.150452
7 -45.484154 -426.601654 10.598794 0.000027 0.000000 -0.000035 429.150452
8 -45.484154 -426.601654 10.598794 0.000027 0.000000 -0.000035 429.150452
9 -45.484154 -426.601654 10.598794 0.000027 0.000000 -0.000035 429.150452
[wing_top_right_buckets]
6 -46.906902 -358.586700 -9.449236 -0.000044 -0.000038 -0.000035 361.765076
7 -46.906902 -358.586700 -9.449236 -0.000044 -0.000038 -0.000035 361.765076
8 -46.906902 -358.586700 -9.449236 -0.000044 -0.000038 -0.000035 361.765076
9 -46.906902 -358.586700 -9.449236 -0.000044 -0.000038 -0.000035 361.765076
